<?xml version="1.0" encoding="UTF-8" standalone="no"?>
<!DOCTYPE svg PUBLIC "-//W3C//DTD SVG 1.1//EN" "http://www.w3.org/Graphics/SVG/1.1/DTD/svg11.dtd">
<svg width="100%" height="100%" viewBox="0 0 526 523" version="1.1" xmlns="http://www.w3.org/2000/svg" xmlns:xlink="http://www.w3.org/1999/xlink" xml:space="preserve" xmlns:serif="http://www.serif.com/" style="fill-rule:evenodd;clip-rule:evenodd;stroke-linejoin:round;stroke-miterlimit:2;">
    <circle cx="263" cy="261" r="225"/>
    <path d="M263,32C389.389,32 492,134.611 492,261C492,387.389 389.389,490 263,490C136.611,490 34,387.389 34,261C34,134.611 136.611,32 263,32ZM263,40C141.027,40 42,139.027 42,261C42,382.973 141.027,482 263,482C384.973,482 484,382.973 484,261C484,139.027 384.973,40 263,40Z" style="fill:white;"/>
    <path d="M229.5,230.5L211.5,230.5L211.5,289L229.5,289L229.5,266L235.5,266L235.5,277L246.5,277L246.5,266L252.5,266L252.5,289L270.5,289L270.5,230.5L252.5,230.5L252.5,242L246.5,242L246.5,253.5L235.5,253.5L235.5,242L229.5,242L229.5,230.5Z" style="fill:white;fill-rule:nonzero;"/>
    <path d="M311,230.5L275.5,230.5L275.5,242.5L298.5,242.5L298.5,254L275.5,254L275.5,266L298.5,266L298.5,277L275.5,277L275.5,289L311,289L311,283.5L317,283.5L317,258.5L311,258.5L311,254L317,254L317,235.5L311,235.5L311,230.5Z" style="fill:white;fill-rule:nonzero;"/>
    <path d="M263,82C361.793,82 442,162.207 442,261C442,359.793 361.793,440 263,440C164.207,440 84,359.793 84,261C84,162.207 164.207,82 263,82ZM263,90C168.623,90 92,166.623 92,261C92,355.377 168.623,432 263,432C357.377,432 434,355.377 434,261C434,166.623 357.377,90 263,90Z" style="fill:white;"/>
    <path d="M275.279,109.375L275.494,109.39C275.986,109.425 276.468,109.551 276.914,109.761C284.27,113.226 293.688,119.025 303.131,128.602C311.885,137.48 320.867,149.824 328.215,166.953C328.799,168.316 328.582,169.889 327.651,171.043C326.72,172.196 325.227,172.74 323.772,172.456C309.383,169.646 293.166,167.838 274.897,167.368C272.729,167.312 271,165.538 271,163.369L271,113.365C271,112.256 271.461,111.197 272.272,110.44C273.083,109.684 274.172,109.298 275.279,109.375ZM279,159.491C293.028,160.003 305.896,161.299 317.697,163.238C311.433,150.573 304.3,141.182 297.435,134.219C290.983,127.676 284.578,123.08 279,119.871L279,159.491ZM125.499,198.681C140.82,164.833 168.137,137.58 202.031,122.342C203.714,121.585 205.696,122.078 206.829,123.535C207.962,124.992 207.951,127.034 206.802,128.479C197.258,140.487 188.398,156.131 181.762,176.47C181.364,177.69 180.404,178.645 179.182,179.038C158.962,185.533 143.47,194.157 131.615,203.475C130.166,204.614 128.126,204.616 126.676,203.479C125.225,202.342 124.739,200.36 125.499,198.681ZM174.798,172.054C179.371,158.512 184.923,146.929 191.043,137.037C170.104,149.423 152.559,166.943 140.145,187.862C149.925,181.908 161.385,176.513 174.798,172.054ZM112.375,250.721L112.378,250.678C112.409,250.235 112.514,249.8 112.688,249.391C115.769,242.159 121.141,232.76 130.433,223.278C139.238,214.292 151.808,204.993 169.738,197.435C171.1,196.861 172.668,197.084 173.815,198.017C174.962,198.949 175.501,200.438 175.218,201.889C172.385,216.365 170.568,232.693 170.107,251.1C170.052,253.27 168.278,255 166.108,255L116.365,255C115.256,255 114.197,254.539 113.44,253.728C112.684,252.917 112.298,251.828 112.375,250.721ZM162.227,247C162.735,232.817 164.043,219.818 166.006,207.906C152.667,214.394 143.065,221.816 136.147,228.877C129.896,235.256 125.62,241.554 122.703,247L162.227,247ZM131.615,319.525C143.472,328.845 158.968,337.47 179.194,343.966C180.422,344.361 181.385,345.323 181.779,346.551C188.313,366.896 197.002,382.456 206.386,394.34C207.529,395.788 207.534,397.83 206.397,399.284C205.259,400.737 203.275,401.224 201.595,400.462C167.903,385.186 140.754,358.022 125.499,324.319C124.739,322.64 125.225,320.658 126.676,319.521C128.126,318.384 130.166,318.386 131.615,319.525ZM190.706,385.763C184.713,375.947 179.283,364.434 174.799,350.946C161.386,346.487 149.925,341.092 140.145,335.138C152.493,355.945 169.916,373.39 190.706,385.763ZM321.831,394.684C331.318,382.759 340.111,367.099 346.708,346.563C347.1,345.341 348.055,344.382 349.275,343.983C369.929,337.245 385.742,328.213 397.822,318.499C399.26,317.342 401.303,317.32 402.766,318.445C404.23,319.569 404.733,321.549 403.985,323.237C388.704,357.713 361.021,385.461 326.592,400.827C324.908,401.579 322.929,401.082 321.8,399.625C320.671,398.168 320.684,396.127 321.831,394.684ZM389.347,334.306C379.315,340.582 367.525,346.276 353.691,350.947C349.135,364.651 343.602,376.316 337.495,386.235C358.916,373.672 376.815,355.747 389.347,334.306ZM326.157,121.979C360.788,137.305 388.64,165.142 403.985,199.763C404.733,201.451 404.23,203.431 402.766,204.555C401.303,205.68 399.26,205.658 397.822,204.501C385.744,194.789 369.935,185.758 349.287,179.02C348.073,178.624 347.121,177.672 346.725,176.459C340.026,155.931 331.062,140.187 321.415,128.137C320.263,126.698 320.244,124.657 321.368,123.197C322.493,121.736 324.471,121.233 326.157,121.979ZM353.691,172.053C367.526,176.725 379.315,182.418 389.347,188.694C376.749,167.139 358.727,149.139 337.156,136.566C343.39,146.561 349.046,158.296 353.691,172.053ZM116.785,269L166.189,269C168.348,269 170.118,270.714 170.187,272.873C170.761,290.928 172.578,306.952 175.333,321.166C175.614,322.616 175.073,324.102 173.927,325.032C172.781,325.963 171.216,326.187 169.855,325.615C151.863,318.048 139.257,308.727 130.433,299.722C121.57,290.677 116.273,281.708 113.129,274.622C112.58,273.385 112.694,271.954 113.432,270.819C114.17,269.685 115.431,269 116.785,269ZM136.147,294.123C143.087,301.205 152.728,308.653 166.133,315.156C164.225,303.521 162.917,290.834 162.334,277L123.249,277C126.146,282.209 130.275,288.13 136.147,294.123ZM200.225,167.07C207.582,149.88 216.586,137.5 225.359,128.602C234.676,119.153 243.969,113.381 251.281,109.901C252.52,109.312 253.976,109.398 255.136,110.131C256.296,110.864 257,112.141 257,113.513L257,163.435C257,165.596 255.284,167.366 253.125,167.433C235.001,167.998 218.922,169.813 204.663,172.571C203.209,172.853 201.719,172.308 200.789,171.155C199.86,170.003 199.643,168.431 200.225,167.07ZM249,159.578L249,120.155C243.538,123.35 237.319,127.867 231.056,134.219C224.168,141.204 217.01,150.635 210.731,163.364C222.399,161.457 235.124,160.153 249,159.578ZM191.8,192.009C192.166,190.599 193.27,189.499 194.681,189.138C213.119,184.424 235.534,181.434 262.791,181.254C291.293,181.066 314.655,184.099 333.806,189.073C335.21,189.438 336.307,190.535 336.672,191.939C341.647,211.09 344.679,234.452 344.492,262.954C344.312,290.212 341.322,312.626 336.607,331.064C336.246,332.475 335.147,333.579 333.736,333.945C314.598,338.909 291.259,341.934 262.791,341.746C235.568,341.567 213.176,338.584 194.751,333.88C193.334,333.518 192.227,332.411 191.865,330.994C187.161,312.569 184.178,290.177 183.999,262.954C183.811,234.487 186.836,211.147 191.8,192.009ZM191.999,262.901C192.167,288.425 194.849,309.427 199.042,326.704C216.319,330.896 237.321,333.579 262.844,333.746C289.568,333.922 311.478,331.205 329.43,326.782C333.633,309.49 336.324,288.463 336.492,262.901C336.668,236.138 333.943,214.205 329.508,196.237C311.541,191.802 289.607,189.078 262.844,189.254C237.282,189.422 216.255,192.112 198.963,196.315C194.54,214.268 191.823,236.177 191.999,262.901ZM358.792,197.53C375.921,204.878 388.265,213.861 397.143,222.614C406.934,232.268 412.777,241.896 416.212,249.32C416.785,250.559 416.687,252.004 415.952,253.154C415.217,254.304 413.947,255 412.582,255L362.383,255C360.212,255 358.438,253.27 358.384,251.1C357.924,232.729 356.113,216.429 353.289,201.973C353.005,200.518 353.549,199.026 354.702,198.094C355.856,197.163 357.43,196.946 358.792,197.53ZM366.263,247L406.02,247C402.805,241.362 398.169,234.861 391.526,228.311C384.564,221.446 375.173,214.313 362.508,208.049C364.458,219.921 365.757,232.873 366.263,247ZM353.174,321.083C355.92,306.889 357.73,290.893 358.304,272.873C358.373,270.714 360.142,269 362.302,269L412.11,269C413.485,269 414.764,269.706 415.496,270.87C416.228,272.034 416.311,273.493 415.716,274.732C412.223,282.002 406.477,291.183 397.143,300.386C388.245,309.159 375.865,318.163 358.675,325.52C357.314,326.102 355.742,325.885 354.59,324.956C353.437,324.026 352.893,322.536 353.174,321.083ZM391.526,294.689C397.78,288.523 402.255,282.4 405.44,277L366.157,277C365.577,290.777 364.277,303.418 362.381,315.014C375.11,308.735 384.541,301.577 391.526,294.689ZM204.579,350.413C218.86,353.18 234.966,355.001 253.125,355.567C255.284,355.634 257,357.404 257,359.565L257,409.073C257,410.423 256.318,411.683 255.187,412.422C254.056,413.16 252.629,413.278 251.392,412.735C244.265,409.607 235.183,404.288 226.023,395.313C217.018,386.489 207.698,373.883 200.131,355.89C199.558,354.529 199.782,352.964 200.713,351.818C201.643,350.672 203.13,350.132 204.579,350.413ZM231.622,389.599C237.713,395.567 243.729,399.735 249,402.638L249,363.422C235.067,362.845 222.296,361.532 210.589,359.612C217.093,373.018 224.54,382.658 231.622,389.599ZM274.897,355.632C293.201,355.161 309.446,353.347 323.857,350.528C325.307,350.244 326.796,350.783 327.729,351.93C328.661,353.077 328.885,354.645 328.311,356.007C320.752,373.937 311.453,386.508 302.467,395.313C293.083,404.508 283.781,409.864 276.58,412.961C275.344,413.492 273.924,413.366 272.8,412.626C271.676,411.886 271,410.631 271,409.286L271,359.631C271,357.462 272.729,355.688 274.897,355.632ZM279,402.905C284.387,399.992 290.588,395.753 296.868,389.599C303.929,382.68 311.351,373.078 317.84,359.739C306,361.691 293.085,362.995 279,363.509L279,402.905Z" style="fill:white;"/>
</svg>
